# xmcd
#
# Track frame offsets:
# 150
# 15833
# 35713
# 51356
# 67513
# 84723
# 103515
# 114649
# 131429
# 148078
# 166470
# 180704
# 202457
# 219078
# 234124
# 252787
# 268040
# 282475
# 298930
# 314549
#
# Disc length: 4424 seconds
#
#
# Revision: 4
# Processed by: cddbd v1.5.2PL0 Copyright (c) Steve Scherf et al.
# Submitted via: FreeRIP 2.943 
#
DISCID=2b114614
DTITLE=NOW HITS and COOL TRACKS - CD 1
DYEAR=2007
DGENRE=Pop
TTITLE0=Nik and Jay - I Love Ya
TTITLE1=Nelly Furtado - All Good Things
TTITLE2=Infernal - I Won't Be Crying
TTITLE3=Amy Winehouse - Rehab
TTITLE4=Beyoncé - Irreplaceable
TTITLE5=Akon feat. Snoop Dogg - I Wanna Love You
TTITLE6=Fedde Le Grand - Put Your Hands Up For Detroit
TTITLE7=Jojo  - Too Little Too Late
TTITLE8=KNA Connected - Fibs(Løgn og Latin)
TTITLE9=Christina Aguilera - Hurt
TTITLE10=Mika - Grace Kelly
TTITLE11=Ufo and Yepha - Fluen På Væggen
TTITLE12=The Pussycat Dolls - I Don't Need a Man
TTITLE13=Eric Pryds vs. Pink Floyd - Proper Education
TTITLE14=Outlandish - Callin' U
TTITLE15=Take That - Patience
TTITLE16=Street Mass - Tillykk' Med Det
TTITLE17=Sugababes - Easy
TTITLE18=Razorlight - America
TTITLE19=Scissor Sisters - Land Of A Thousand Words
EXTD=Now Music - The Voice
EXTT0=
EXTT1=
EXTT2=
EXTT3=
EXTT4=
EXTT5=
EXTT6=
EXTT7=
EXTT8=
EXTT9=
EXTT10=
EXTT11=
EXTT12=
EXTT13=
EXTT14=
EXTT15=
EXTT16=
EXTT17=
EXTT18=
EXTT19=
PLAYORDER=
